<?xml version="1.0" encoding="utf-8"?>
<!-- Generator: Adobe Illustrator 19.0.0, SVG Export Plug-In . SVG Version: 6.00 Build 0)  -->
<svg version="1.1" id="Layer_1" xmlns="http://www.w3.org/2000/svg" xmlns:xlink="http://www.w3.org/1999/xlink" x="0px" y="0px"
	 viewBox="0 0 512 512" style="enable-background:new 0 0 512 512;" xml:space="preserve">
<style type="text/css">
	.st0{fill:#FABC3D;}
	.st1{fill:#DF2C2C;}
	.st2{fill:#FA5655;}
	.st3{fill:#3E3E3F;}
	.st4{fill:#BF0302;}
	.st5{fill:#FBE158;}
	.st6{fill:#E2E4E5;}
	.st7{fill:#FFFFFF;}
	.st8{fill:#40C9E7;}
	.st9{fill:#6FDAF1;}
	.st10{fill:#FBEC9A;}
</style>
<g id="XMLID_1_">
	<circle id="XMLID_3_" class="st0" cx="256" cy="256" r="256"/>
	<path id="XMLID_4_" class="st1" d="M367.9,144.1c0-20.5-16.5-37-37-37H181.2c-20.5,0-37,16.5-37,37v232.4c0,5.5,3.9,9.5,9.5,9.5
		h204.8c5.5,0,9.5-3.9,9.5-9.5V144.1z"/>
	<path id="XMLID_5_" class="st2" d="M354.5,115.8c-6.3-5.5-15-8.7-24.4-8.7H181.2c-20.5,0-37,16.5-37,37v182L354.5,115.8z"/>
	<path id="XMLID_6_" class="st3" d="M144.1,386v9.5c0,5.5,3.9,9.5,9.5,9.5h37c5.5,0,9.5-3.9,9.5-9.5V386H144.1z"/>
	<path id="XMLID_7_" class="st3" d="M311.9,395.4c0,5.5,3.9,9.5,9.5,9.5h37c5.5,0,9.5-3.9,9.5-9.5V386h-55.9
		C311.9,386,311.9,395.4,311.9,395.4z"/>
	<path id="XMLID_8_" class="st2" d="M377.3,344.2c0-10.2-8.7-18.9-18.9-18.9h-41.7l-11-13.4c-1.6-3.2-4.7-5.5-8.7-5.5H215
		c-3.2,0-7.1,2.4-8.7,5.5l-11,13.4h-41.7c-10.2,0-18.9,8.7-18.9,18.9v32.3c0,5.5,3.9,9.5,9.5,9.5h223.7c5.5,0,9.5-3.9,9.5-9.5
		C377.3,376.5,377.3,344.2,377.3,344.2z"/>
	<path id="XMLID_9_" class="st4" d="M251.3,321.4H219c-5.5,0-9.5,3.9-9.5,9.5v32.3c0,5.5,3.9,9.5,9.5,9.5h32.3V321.4z"/>
	<path id="XMLID_10_" class="st4" d="M260.7,321.4H293c5.5,0,9.5,3.9,9.5,9.5v32.3c0,5.5-3.9,9.5-9.5,9.5h-32.3V321.4z"/>
	<circle id="XMLID_11_" class="st5" cx="172.5" cy="358.4" r="14.2"/>
	<circle id="XMLID_12_" class="st5" cx="334.8" cy="358.4" r="14.2"/>
	<rect id="XMLID_13_" x="144.1" y="219" class="st6" width="223.7" height="9.5"/>
	<polygon id="XMLID_14_" class="st7" points="252.1,219 144.1,219 144.1,228.4 242.6,228.4 	"/>
	<path id="XMLID_15_" class="st8" d="M348.9,228.4h-83.5v55.9c0,5.5,3.9,9.5,9.5,9.5h65.4c5.5,0,9.5-3.9,9.5-9.5v-55.9H348.9z"/>
	<path id="XMLID_16_" class="st9" d="M163.1,172.5c0,5.5,3.9,9.5,9.5,9.5h65.4c5.5,0,9.5-3.9,9.5-9.5v-37c0-5.5-3.9-9.5-9.5-9.5
		h-65.4c-5.5,0-9.5,3.9-9.5,9.5V172.5z"/>
	<path id="XMLID_17_" class="st8" d="M265.5,172.5c0,5.5,3.9,9.5,9.5,9.5h65.4c5.5,0,9.5-3.9,9.5-9.5v-37c0-5.5-3.9-9.5-9.5-9.5
		h-65.4c-5.5,0-9.5,3.9-9.5,9.5V172.5z"/>
	<path id="XMLID_18_" class="st9" d="M339.5,126h-65.4c-5.5,0-9.5,3.9-9.5,9.5v37c0,5.5,3.9,9.5,9.5,9.5h14.2l55.1-55.1
		C342.6,126,341.1,126,339.5,126z"/>
	<path id="XMLID_19_" class="st10" d="M334.8,345c-7.9,0-14.2,6.3-14.2,14.2c0,3.2,1.6,6.3,3.2,9.5l19.7-19.7
		C341.9,345.8,338.7,345,334.8,345z"/>
	<path id="XMLID_20_" class="st10" d="M172.5,344.2c-7.9,0-14.2,6.3-14.2,14.2c0,3.2,1.6,6.3,3.2,9.5l19.7-19.7
		C178.8,345.8,175.7,344.2,172.5,344.2z"/>
	<rect id="XMLID_21_" x="163.1" y="228.4" class="st8" width="83.5" height="37"/>
	<path id="XMLID_22_" class="st8" d="M163.1,283.6c0,5.5,3.9,9.5,9.5,9.5h65.4c5.5,0,9.5-3.9,9.5-9.5v-9.5h-84.3V283.6z"/>
	<polygon id="XMLID_23_" class="st9" points="205.6,265.5 242.6,228.4 163.1,228.4 163.1,265.5 	"/>
	<path id="XMLID_24_" class="st9" d="M163.1,274.9v9.5c0,5.5,3.9,9.5,9.5,9.5h4.7l18.9-18.9H163.1z"/>
</g>
</svg>
